<svg width="420" height="320" viewBox="0 0 420 320" fill="none" xmlns="http://www.w3.org/2000/svg">
<rect width="420" height="320" rx="48" fill="#0b111d"/>
<g opacity="0.35">
<path d="M0 60H420" stroke="#27f2c7" stroke-opacity="0.5" stroke-width="0.6"/>
<path d="M0 120H420" stroke="#27f2c7" stroke-opacity="0.25" stroke-width="0.6"/>
<path d="M0 180H420" stroke="#27f2c7" stroke-opacity="0.5" stroke-width="0.6"/>
<path d="M0 240H420" stroke="#27f2c7" stroke-opacity="0.25" stroke-width="0.6"/>
<path d="M60 0V320" stroke="#27f2c7" stroke-opacity="0.5" stroke-width="0.6"/>
<path d="M120 0V320" stroke="#27f2c7" stroke-opacity="0.25" stroke-width="0.6"/>
<path d="M180 0V320" stroke="#27f2c7" stroke-opacity="0.5" stroke-width="0.6"/>
<path d="M240 0V320" stroke="#27f2c7" stroke-opacity="0.25" stroke-width="0.6"/>
<path d="M300 0V320" stroke="#27f2c7" stroke-opacity="0.5" stroke-width="0.6"/>
<path d="M360 0V320" stroke="#27f2c7" stroke-opacity="0.25" stroke-width="0.6"/>
</g>
<circle cx="140" cy="110" r="70" fill="#27f2c7" fill-opacity="0.08"/>
<circle cx="280" cy="210" r="90" fill="#ff9b4a" fill-opacity="0.12"/>
<path d="M120 130C120 108.909 137.909 91 159 91H260C281.091 91 299 108.909 299 130V191C299 212.091 281.091 230 260 230H159C137.909 230 120 212.091 120 191V130Z" fill="url(#paint0_linear)" fill-opacity="0.7"/>
<defs>
<linearGradient id="paint0_linear" x1="120" y1="160" x2="299" y2="160" gradientUnits="userSpaceOnUse">
<stop stop-color="#27f2c7"/>
<stop offset="1" stop-color="#ff9b4a"/>
</linearGradient>
</defs>
</svg>
