<svg width="26" height="26" viewBox="0 0 26 26" xmlns="http://www.w3.org/2000/svg">
	<defs>
		<filter id="shadow" x="-30%" y="-30%" width="160%" height="160%">
			<feDropShadow dx="0" dy="1" stdDeviation="1.2" flood-color="rgba(0,0,0,0.18)" />
		</filter>
	</defs>
	<circle cx="13" cy="13" r="12" fill="white" filter="url(#shadow)" />
	<circle cx="13" cy="13" r="10" fill="#1F9F4F" />
	<path d="M13 7C9.68 7 7 9.68 7 13C7 14.54 7.54 15.96 8.48 17.08L8 19L10.02 18.49C11.06 19.09 12.25 19.42 13.5 19.42C16.82 19.42 19.5 16.74 19.5 13.42C19.5 10.1 16.82 7 13 7Z" fill="white" />
	<path d="M9.55 11.04C9.4 10.71 9.16 10.7 8.98 10.69C8.82 10.69 8.61 10.69 8.4 10.69C8.18 10.69 7.86 10.76 7.62 11.06C7.38 11.37 6.91 11.89 6.91 12.85C6.91 13.81 7.63 14.74 7.73 14.87C7.83 15 8.97 16.79 10.97 17.58C12.25 18.1 12.56 18.05 12.99 18C13.42 17.95 14.32 17.41 14.48 16.83C14.64 16.25 14.64 15.76 14.58 15.66C14.52 15.56 14.29 15.47 13.97 15.3C13.65 15.13 12.74 14.67 12.44 14.56C12.14 14.45 11.93 14.39 11.79 14.66C11.65 14.93 11.22 15.45 11.07 15.62C10.92 15.79 10.77 15.81 10.53 15.68C9.73 15.25 8.91 14.34 8.48 13.65C8.04 12.95 8.53 12.8 8.78 12.64C9.04 12.48 9.21 12.19 9.32 11.99C9.43 11.79 9.7 11.37 9.55 11.04Z" fill="#1F9F4F" />
</svg>
